<?xml version="1.0" standalone="no"?>
<!DOCTYPE svg PUBLIC "-//W3C//DTD SVG 20010904//EN"
 "http://www.w3.org/TR/2001/REC-SVG-20010904/DTD/svg10.dtd">
<svg version="1.0" xmlns="http://www.w3.org/2000/svg"
 width="196.000000pt" height="196.000000pt" viewBox="0 0 196.000000 196.000000"
 preserveAspectRatio="xMidYMid meet">
<metadata>
Created by potrace 1.11, written by Peter Selinger 2001-2013
</metadata>
<g transform="translate(0.000000,196.000000) scale(0.100000,-0.100000)"
fill="#000000" stroke="none">
<path d="M850 1854 c-51 -18 -140 -69 -140 -80 0 -8 -5 -14 -10 -14 -6 0 -15
-11 -21 -23 -7 -15 -24 -27 -46 -33 -20 -5 -43 -19 -51 -32 -13 -20 -13 -22 1
-16 18 7 18 -16 -1 -38 -6 -8 -9 -18 -6 -21 3 -3 -4 -20 -16 -37 -36 -51 -50
-115 -50 -229 0 -77 5 -121 18 -158 14 -41 18 -75 15 -160 -2 -59 -3 -130 -3
-158 1 -58 43 -183 94 -282 20 -37 50 -102 68 -143 17 -41 37 -82 44 -90 6 -8
14 -27 18 -42 7 -29 47 -93 74 -118 53 -49 98 -70 149 -70 50 0 126 22 149 44
6 6 21 18 33 26 11 8 21 18 21 22 0 4 18 35 39 68 22 34 47 83 56 111 9 27 20
51 25 54 5 3 14 22 20 43 7 20 35 93 63 162 50 124 50 126 58 270 4 80 9 157
12 173 2 15 0 46 -4 70 -5 23 -10 103 -12 177 -4 121 -7 143 -35 213 -36 92
-53 112 -229 274 -7 6 -27 16 -45 21 -37 12 -265 24 -288 16z m211 -119 c5 3
18 1 29 -5 16 -9 24 -8 36 5 21 21 29 19 79 -15 71 -49 171 -181 189 -250 5
-19 2 -16 -13 10 -21 38 -68 86 -76 78 -3 -2 2 -27 10 -54 9 -28 14 -81 14
-123 -2 -63 1 -76 19 -90 33 -27 52 -76 50 -133 l-1 -53 -6 53 c-4 36 -15 63
-34 87 l-28 36 -86 -5 c-98 -6 -128 -20 -138 -68 -4 -18 -13 -42 -20 -53 -7
-11 -18 -42 -24 -70 -9 -40 -9 -59 3 -99 13 -43 68 -116 87 -116 4 0 10 13 14
29 8 36 -12 105 -37 127 -10 10 -18 22 -18 27 0 6 -8 20 -17 31 -10 12 -11 15
-3 9 8 -7 26 -13 40 -13 24 0 26 3 22 29 -7 49 54 76 112 50 37 -17 41 -39 11
-68 -22 -23 -33 -26 -85 -23 -33 1 -60 -1 -60 -5 1 -38 108 -81 157 -62 13 5
29 22 34 39 11 31 23 38 35 19 3 -6 15 -9 25 -6 16 4 19 -1 20 -26 1 -18 4
-43 8 -57 10 -34 25 137 16 182 -5 25 -4 29 5 18 13 -18 4 -344 -10 -371 -6
-10 -10 -28 -10 -42 0 -26 -94 -154 -110 -150 -6 2 -10 -4 -10 -12 0 -8 -7
-15 -15 -15 -9 0 -15 9 -15 24 0 40 -42 89 -105 123 -70 37 -82 39 -107 16
-17 -15 -20 -15 -41 5 -13 12 -31 22 -40 22 -9 0 -17 7 -17 16 0 13 3 14 13 5
8 -6 17 -8 20 -4 4 3 15 -4 24 -16 19 -23 53 -21 53 4 0 19 -28 38 -45 31 -8
-3 -15 0 -15 7 0 7 -19 18 -42 24 -37 10 -45 10 -55 -4 -20 -26 -15 -50 14
-71 l27 -20 -49 -31 c-27 -17 -52 -31 -56 -31 -4 0 -17 -16 -29 -35 -16 -26
-21 -47 -18 -75 4 -44 2 -46 -28 -25 -12 8 -24 11 -28 8 -3 -3 -6 1 -6 11 0 9
-4 15 -9 12 -5 -3 -14 8 -21 25 -7 17 -18 28 -25 25 -15 -5 -75 79 -103 144
-18 39 -19 56 -12 130 5 47 9 94 10 105 1 11 10 -8 21 -42 34 -107 54 -66 24
47 -8 30 -14 84 -13 120 l1 65 6 -55 c8 -67 17 -84 73 -135 l43 -40 57 10 c31
5 65 18 75 28 11 9 25 17 32 17 7 0 10 4 7 8 -6 10 30 52 44 52 6 0 10 13 10
29 0 16 4 41 9 55 9 23 6 27 -50 60 -102 61 -231 60 -279 -1 -24 -31 -24 -28
-5 26 41 118 72 331 48 331 -4 0 -18 -10 -31 -22 l-24 -23 7 25 c19 66 133
188 163 174 19 -8 26 -8 122 -2 36 3 71 0 78 -5 8 -6 12 -5 12 3 0 7 7 10 15
7 8 -4 18 -1 22 5 5 9 8 9 11 0 2 -7 8 -10 13 -7z m356 -447 c-2 -24 -4 -5 -4
42 0 47 2 66 4 43 2 -24 2 -62 0 -85z m-834 62 c3 -11 1 -18 -4 -14 -5 3 -9
12 -9 20 0 20 7 17 13 -6z m238 -190 c18 0 49 -41 49 -65 0 -44 -108 -58 -151
-19 -38 34 26 103 79 88 8 -2 18 -4 23 -4z m299 -535 c24 -8 23 -9 -15 -16
-22 -4 -59 -8 -83 -8 -24 -1 -66 -11 -93 -22 -45 -20 -48 -23 -32 -35 17 -13
17 -14 0 -8 -16 6 -17 3 -11 -22 13 -58 48 -107 89 -125 22 -10 33 -19 25 -19
-8 0 -22 4 -30 10 -17 11 -30 -4 -30 -37 0 -13 8 -24 20 -28 11 -3 20 -11 20
-16 0 -14 40 -11 93 8 46 16 47 19 41 48 -8 38 -12 41 -26 27 -7 -7 -26 -12
-42 -11 l-31 1 35 8 c39 10 66 39 111 124 l32 59 11 -34 c20 -61 19 -140 -4
-184 -11 -21 -20 -43 -20 -48 0 -16 -29 -37 -59 -43 -17 -4 -31 -11 -31 -16 0
-5 -6 -6 -12 -1 -7 4 -31 8 -53 9 -85 3 -146 33 -167 84 -6 14 -14 50 -18 80
-10 74 22 166 60 173 39 8 104 34 107 43 4 11 80 10 113 -1z m78 -35 c7 -12 8
-20 2 -20 -5 0 -10 4 -10 8 0 5 -10 14 -22 20 -22 10 -22 11 -3 11 11 1 26 -8
33 -19z m-188 -150 c29 0 59 16 98 53 48 46 42 8 -8 -44 -38 -40 -41 -42 -87
-35 -37 4 -55 14 -80 41 -52 55 -42 76 12 26 24 -22 54 -41 65 -41z"/>
<path d="M1196 1139 c-11 -17 -13 -26 -4 -36 26 -32 74 0 51 35 -15 25 -30 25
-47 1z m34 -9 c0 -5 -4 -10 -9 -10 -6 0 -13 5 -16 10 -3 6 1 10 9 10 9 0 16
-4 16 -10z"/>
<path d="M866 994 c-9 -8 -16 -20 -16 -26 0 -6 1 -9 3 -7 1 2 11 14 21 27 22
25 16 30 -8 6z"/>
<path d="M1367 992 c-20 -22 -21 -29 -4 -35 6 -2 4 -3 -5 -2 -11 2 -31 -19
-60 -64 -52 -81 -68 -111 -62 -111 3 0 -2 -8 -12 -17 -11 -11 -13 -18 -5 -21
6 -2 9 -7 7 -11 -2 -3 8 -21 23 -40 25 -30 30 -32 50 -21 18 9 21 17 16 38
-10 41 -24 52 -58 47 -26 -5 -28 -4 -17 9 7 9 15 14 19 12 3 -2 12 2 19 10 11
12 10 14 -3 14 -9 0 -13 5 -10 10 4 6 10 8 15 5 4 -3 6 5 2 17 -4 17 -2 20 11
15 9 -3 18 0 21 9 3 9 1 12 -4 9 -6 -3 -10 -1 -10 5 0 6 8 10 18 8 11 -2 16
-11 14 -24 -3 -25 37 -41 50 -21 7 12 12 177 5 177 -2 0 -11 -8 -20 -18z m-1
-77 c-2 -7 -2 -16 2 -19 3 -4 7 -13 8 -21 1 -10 -4 -12 -19 -6 -12 5 -22 13
-22 19 0 6 -3 14 -7 18 -9 9 24 34 35 27 5 -3 6 -11 3 -18z m-6 -66 c0 -5 5
-7 12 -3 7 4 8 3 4 -4 -4 -6 -13 -9 -21 -5 -17 6 -20 23 -5 23 6 0 10 -5 10
-11z m-75 -107 c-2 -3 2 -11 10 -19 11 -11 12 -19 5 -34 -13 -23 -26 -25 -33
-5 -4 10 -1 13 8 10 12 -5 13 0 6 35 -1 2 -8 -2 -16 -9 -18 -15 -28 -9 -20 11
3 8 14 15 25 15 10 0 17 -2 15 -4z"/>
<path d="M1346 892 c-3 -5 1 -9 9 -9 8 0 12 4 9 9 -3 4 -7 8 -9 8 -2 0 -6 -4
-9 -8z"/>
<path d="M781 966 c12 -10 60 -16 54 -6 -3 5 -18 10 -32 10 -15 0 -24 -2 -22
-4z"/>
<path d="M788 943 c7 -3 16 -2 19 1 4 3 -2 6 -13 5 -11 0 -14 -3 -6 -6z"/>
<path d="M1079 814 c-17 -18 -19 -24 -8 -24 8 0 21 6 28 13 11 10 11 8 2 -10
-10 -19 -9 -23 3 -23 23 0 60 35 53 52 -8 23 -53 19 -78 -8z"/>
<path d="M1333 805 c0 -7 6 -11 14 -8 11 4 11 0 3 -23 -9 -27 -9 -28 5 -10 19
26 19 33 -3 45 -14 7 -19 6 -19 -4z"/>
<path d="M1308 781 c8 -4 13 -11 13 -15 -3 -18 0 -20 9 -6 9 15 -3 30 -25 30
-5 0 -4 -4 3 -9z"/>
<path d="M766 1134 c-29 -29 17 -80 49 -54 21 17 19 47 -4 60 -25 13 -27 13
-45 -6z m34 -8 c0 -3 -4 -8 -10 -11 -5 -3 -10 -1 -10 4 0 6 5 11 10 11 6 0 10
-2 10 -4z"/>
<path d="M517 1127 c-11 -29 -9 -43 4 -30 6 6 9 19 7 29 -3 18 -4 18 -11 1z"/>
</g>
</svg>
